<svg xmlns="http://www.w3.org/2000/svg" viewBox="2 3.5 19.5 15" fill="#222222" style="box-shadow: none; border-radius: 0px; opacity: 1;" preserveAspectRatio="xMidYMid meet" fill-opacity="1" role="img">
<path d="M16 6.5C16 6.22386 16.2239 6 16.5 6H18.5C18.7761 6 19 6.22386 19 6.5C19 6.77614 18.7761 7 18.5 7H16.5C16.2239 7 16 6.77614 16 6.5Z" fill="" style="undefined" fill-opacity=""></path>
<path fill-rule="evenodd" clip-rule="evenodd" d="M13.5 4C13.5 3.72386 13.7239 3.5 14 3.5H21C21.2761 3.5 21.5 3.72386 21.5 4V18C21.5 18.2761 21.2761 18.5 21 18.5H14C13.7239 18.5 13.5 18.2761 13.5 18V17H3C2.44772 17 2 16.5523 2 16V8C2 7.44772 2.44772 7 3 7H13.5V4ZM14.5 17.5V17H15C15.5523 17 16 16.5523 16 16V8C16 7.44772 15.5523 7 15 7H14.5V4.5H20.5V17.5H14.5ZM15 8H3L3 16H15V8Z" fill="" style="undefined" fill-opacity=""></path>
<path d="M7 17.5C6.72386 17.5 6.5 17.7239 6.5 18C6.5 18.2761 6.72386 18.5 7 18.5H11C11.2761 18.5 11.5 18.2761 11.5 18C11.5 17.7239 11.2761 17.5 11 17.5H7Z" fill="" style="undefined" fill-opacity=""></path>
<path d="M18 15.5C18 15.7761 17.7761 16 17.5 16C17.2239 16 17 15.7761 17 15.5C17 15.2239 17.2239 15 17.5 15C17.7761 15 18 15.2239 18 15.5Z" fill="" style="undefined" fill-opacity=""></path>
</svg>