<svg xmlns="http://www.w3.org/2000/svg" viewBox="2.5 2.5 19 19" fill="none" preserveAspectRatio="xMidYMid meet" role="img">
<path fill-rule="evenodd" clip-rule="evenodd" d="M5.35115 6.29794C4.02595 7.87108 3.5 9.78714 3.5 11.129V13.5873L6.16562 13.899C6.92697 13.9881 7.49871 14.6368 7.49134 15.4033L7.447 20.0144C7.43909 20.8372 6.76987 21.5 5.94707 21.5H4C3.17157 21.5 2.5 20.8284 2.5 20V11.129C2.5 9.5677 3.09905 7.41924 4.58635 5.65367C6.08906 3.86981 8.47982 2.5 12 2.5C15.5393 2.5 17.9277 4.03063 19.4203 5.87947C20.8944 7.7054 21.5 9.84725 21.5 11.129V20C21.5 20.8284 20.8284 21.5 20 21.5H18.0529C17.2301 21.5 16.5609 20.8372 16.553 20.0144L16.5087 15.4033C16.5013 14.6368 17.073 13.9881 17.8344 13.899L20.5 13.5873V11.129C20.5 10.0882 19.9806 8.16557 18.6422 6.50762C17.3223 4.87259 15.2107 3.5 12 3.5C8.77018 3.5 6.66094 4.74309 5.35115 6.29794ZM20.5 14.5941L17.9505 14.8923C17.6967 14.9219 17.5062 15.1382 17.5086 15.3937L17.553 20.0048C17.5556 20.2791 17.7787 20.5 18.0529 20.5H20C20.2761 20.5 20.5 20.2761 20.5 20V14.5941ZM3.5 14.5941V20C3.5 20.2761 3.72386 20.5 4 20.5H5.94707C6.22134 20.5 6.44441 20.2791 6.44705 20.0048L6.49138 15.3937C6.49384 15.1382 6.30326 14.9219 6.04948 14.8923L3.5 14.5941Z" fill="black"></path>
</svg>