<svg xmlns="http://www.w3.org/2000/svg" viewBox="0.7011109590530396 0.0999755859375 15.498889923095703 20.300024032592773" fill="#222222" style="box-shadow: none; border-radius: 0px; opacity: 1;" preserveAspectRatio="xMidYMid meet" fill-opacity="1" role="img">
<path fill-rule="evenodd" clip-rule="evenodd" d="M4.60003 1.89752C4.60141 0.922453 5.4247 0.0999756 6.40003 0.0999756C7.37617 0.0999756 8.20003 0.923833 8.20003 1.89998V4.71469C8.46555 4.57699 8.771 4.49998 9.10003 4.49998C9.89154 4.49998 10.5466 4.94567 10.8377 5.60962C11.1379 5.41285 11.5017 5.29998 11.9 5.29998C12.8803 5.29998 13.6512 5.98354 13.7808 6.91869C13.9646 6.8427 14.1714 6.79998 14.4 6.79998C15.3762 6.79998 16.2 7.62383 16.2 8.59998V15.6C16.2 18.2836 13.9686 20.4 11.4 20.4H8.80003C6.92415 20.4 5.16337 19.4079 4.17344 17.7608L0.875578 12.4643C0.860029 12.4393 0.846714 12.413 0.835788 12.3857C0.576683 11.7379 0.670675 10.872 1.30003 10.4C1.94599 9.91551 2.7013 10.1259 3.20003 10.5C3.2157 10.5117 3.23067 10.5244 3.24485 10.5379L4.51052 11.7433L4.60003 1.89752ZM13.7623 8.45339C13.8143 8.0348 14.0896 7.79998 14.4 7.79998C14.8239 7.79998 15.2 8.17612 15.2 8.59998V15.6C15.2 17.7163 13.4315 19.4 11.4 19.4H8.80003C7.27726 19.4 5.83924 18.5935 5.02877 17.2427L1.7503 11.9772C1.63091 11.6388 1.73538 11.3235 1.90003 11.2C2.05032 11.0873 2.28692 11.0746 2.57818 11.2839L4.6552 13.262C4.79944 13.3994 5.01146 13.4381 5.1949 13.3604C5.37833 13.2828 5.4982 13.1037 5.50001 12.9045L5.60001 1.90452L5.60003 1.89998C5.60003 1.47612 5.97617 1.09998 6.40003 1.09998C6.82388 1.09998 7.20003 1.47612 7.20003 1.89998V10.6C7.20003 10.8761 7.42388 11.1 7.70003 11.1C7.97617 11.1 8.20003 10.8761 8.20003 10.6V6.39998C8.20003 5.87612 8.57617 5.49998 9.10003 5.49998C9.62388 5.49998 10 5.87612 10 6.39998V10.5C10 10.7761 10.2239 11 10.5 11C10.7762 11 11 10.7761 11 10.5V7.19998C11 6.67612 11.3762 6.29998 11.9 6.29998C12.4216 6.29998 12.7967 6.67284 12.8 7.19313L12.7635 8.3989C12.7571 8.46327 12.7537 8.5279 12.7535 8.59244L12.7003 10.4848L12.7002 10.4859C12.6925 10.7617 12.9096 10.9917 13.1854 10.9998C13.4612 11.0078 13.6914 10.7909 13.6998 10.5151L13.7623 8.45339Z" fill="" style="undefined" fill-opacity=""></path>
</svg>