<svg xmlns="http://www.w3.org/2000/svg" viewBox="0 0 18 18" fill="#222222" style="box-shadow: none; border-radius: 0px; opacity: 1;" preserveAspectRatio="xMidYMid meet" fill-opacity="1" role="img">
<path fill-rule="evenodd" clip-rule="evenodd" d="M3 1H1V3H3V1ZM0 0V4H4V0H0Z" fill="" style="undefined" fill-opacity=""></path>
<path fill-rule="evenodd" clip-rule="evenodd" d="M17 1H15V3H17V1ZM14 0V4H18V0H14Z" fill="" style="undefined" fill-opacity=""></path>
<path fill-rule="evenodd" clip-rule="evenodd" d="M3 15H1V17H3V15ZM0 14V18H4V14H0Z" fill="" style="undefined" fill-opacity=""></path>
<path fill-rule="evenodd" clip-rule="evenodd" d="M17 15H15V17H17V15ZM14 14V18H18V14H14Z" fill="" style="undefined" fill-opacity=""></path>
<path fill-rule="evenodd" clip-rule="evenodd" d="M2 3H1V15H2V3ZM15 1V2H3V1H15ZM17 3H16V15H17V3ZM15 17V16H3V17H15Z" fill="" style="undefined" fill-opacity=""></path>
</svg>