<svg width="45" height="45" viewBox="0 0 45 45" fill="none" xmlns="http://www.w3.org/2000/svg">
<g clip-path="url(#clip0_42_49)">
<path d="M0.960352 22.2307C0.959297 26.0115 1.95492 29.7033 3.84809 32.9572L0.779297 44.075L12.2459 41.0918C15.4174 42.8049 18.9708 43.7026 22.5818 43.7028H22.5913C34.5119 43.7028 44.2155 34.0779 44.2206 22.2476C44.2229 16.515 41.975 11.1244 37.8909 7.06882C33.8075 3.01358 28.3768 0.779106 22.5904 0.776489C10.6684 0.776489 0.965449 10.4009 0.960527 22.2307" fill="url(#paint0_linear_42_49)"/>
<path d="M0.188086 22.2237C0.186855 26.1406 1.21816 29.9644 3.17883 33.3349L0 44.8512L11.8777 41.761C15.1504 43.5316 18.8351 44.4651 22.5846 44.4665H22.5942C34.9425 44.4665 44.9947 34.4953 45 22.2415C45.0021 16.3029 42.6734 10.7185 38.4434 6.51767C34.2128 2.31733 28.5878 0.00244186 22.5942 0C10.2438 0 0.193008 9.96977 0.188086 22.2237ZM7.26152 32.7544L6.81803 32.0559C4.95369 29.1145 3.96967 25.7154 3.97107 22.2251C3.97512 12.0399 12.3289 3.75349 22.6013 3.75349C27.5759 3.75558 32.2509 5.67977 35.7673 9.17093C39.2834 12.6624 41.2182 17.3037 41.217 22.2401C41.2124 32.4253 32.8584 40.7128 22.5942 40.7128H22.5868C19.2447 40.711 15.9669 39.8205 13.1084 38.1375L12.4281 37.7372L5.37961 39.5709L7.26152 32.7542V32.7544Z" fill="url(#paint1_linear_42_49)"/>
<path d="M16.9942 12.9328C16.5748 12.0078 16.1334 11.9892 15.7345 11.9729C15.4079 11.959 15.0346 11.96 14.6616 11.96C14.2882 11.96 13.6816 12.0994 13.1688 12.6549C12.6556 13.211 11.2092 14.5547 11.2092 17.2877C11.2092 20.0208 13.2154 22.662 13.4951 23.033C13.7751 23.4033 17.3681 29.1912 23.0585 31.4178C27.7877 33.2682 28.7501 32.9002 29.7765 32.8074C30.803 32.715 33.0889 31.4641 33.5552 30.1669C34.0219 28.8699 34.0219 27.7582 33.882 27.5259C33.7421 27.2944 33.3687 27.1554 32.8089 26.8777C32.2488 26.5999 29.4965 25.256 28.9833 25.0706C28.4701 24.8853 28.0969 24.7929 27.7235 25.3491C27.3502 25.9045 26.2781 27.1554 25.9513 27.5259C25.6249 27.8972 25.2981 27.9434 24.7384 27.6656C24.1782 27.3868 22.3752 26.801 20.2361 24.9087C18.5718 23.4363 17.4482 21.6179 17.1216 21.0617C16.795 20.5064 17.0867 20.2053 17.3674 19.9285C17.6189 19.6796 17.9274 19.2799 18.2076 18.9556C18.4867 18.6312 18.5799 18.3997 18.7666 18.0293C18.9534 17.6585 18.8599 17.3341 18.7202 17.0562C18.5799 16.7784 17.492 14.0311 16.9942 12.9328Z" fill="white"/>
</g>
<defs>
<linearGradient id="paint0_linear_42_49" x1="2172.85" y1="4330.63" x2="2172.85" y2="0.776489" gradientUnits="userSpaceOnUse">
<stop stop-color="#1FAF38"/>
<stop offset="1" stop-color="#60D669"/>
</linearGradient>
<linearGradient id="paint1_linear_42_49" x1="2250" y1="4485.12" x2="2250" y2="0" gradientUnits="userSpaceOnUse">
<stop stop-color="#F9F9F9"/>
<stop offset="1" stop-color="white"/>
</linearGradient>
<clipPath id="clip0_42_49">
<rect width="45" height="45" fill="white"/>
</clipPath>
</defs>
</svg>
